<svg t="1701174858203" class="icon" viewBox="0 0 1433 1024" version="1.1" xmlns="http://www.w3.org/2000/svg" p-id="20098" width="128" height="128"><path d="M1228.8 0a204.8 204.8 0 0 1 204.8 204.8v614.4a204.8 204.8 0 0 1-204.8 204.8H204.8a204.8 204.8 0 0 1-204.8-204.8V204.8a204.8 204.8 0 0 1 204.8-204.8z m0 136.533333H204.8a68.266667 68.266667 0 0 0-68.266667 68.266667v614.4a68.266667 68.266667 0 0 0 68.266667 68.266667h1024a68.266667 68.266667 0 0 0 68.266667-68.266667V204.8a68.266667 68.266667 0 0 0-68.266667-68.266667zM307.2 307.2a68.266667 68.266667 0 0 1 68.266667 68.266667v273.066666a68.266667 68.266667 0 1 1-136.533334 0v-273.066666a68.266667 68.266667 0 0 1 68.266667-68.266667z" fill="#515151" p-id="20099" data-spm-anchor-id="a313x.search_index.0.i47.fbf73a81tAv71k" class="selected"></path></svg>