<svg t="1701173770469" class="icon" viewBox="0 0 1024 1024" version="1.1" xmlns="http://www.w3.org/2000/svg" p-id="6535" width="128" height="128"><path d="M864.97 318.97A23.924 23.924 0 0 0 872 302V154c0-13.254-10.746-24-24-24H172c-13.254 0-24 10.746-24 24v148c0 13.254 10.746 24 24 24h676c6.628 0 12.628-2.686 16.97-7.03A23.924 23.924 0 0 0 872 302v-34.726l-80.02-106.19c-7.976-10.586-23.024-12.7-33.61-4.724L540.14 320.806l-42.712-87.57c-5.81-11.912-20.18-16.86-32.092-11.05L252.488 326H848c6.628 0 12.628-2.686 16.97-7.03zM148 82h724c26.51 0 48 21.49 48 48v196c0 26.51-21.49 48-48 48H148c-26.51 0-48-21.49-48-48V130c0-26.51 21.49-48 48-48z m96 164c-23.196 0-42-18.804-42-42s18.804-42 42-42 42 18.804 42 42-18.804 42-42 42zM148 466h724c26.51 0 48 21.49 48 48s-21.49 48-48 48H148c-26.51 0-48-21.49-48-48s21.49-48 48-48z m2 190h524c26.51 0 48 21.49 48 48s-21.49 48-48 48H150c-26.51 0-48-21.49-48-48s21.49-48 48-48z m0 190h724c26.51 0 48 21.49 48 48s-21.49 48-48 48H150c-26.51 0-48-21.49-48-48s21.49-48 48-48z" fill="#515151" p-id="6536"></path></svg>