<svg t="1688650658741" class="icon" viewBox="0 0 1024 1024" version="1.1" xmlns="http://www.w3.org/2000/svg" p-id="1457" width="200" height="200"><path d="M870.978998 149.712439H154.675283c-52.936995 0-95.948304 43.011309-95.948304 95.948304v532.678514c0 52.936995 43.011309 95.948304 95.948304 95.948304h716.303715c52.936995 0 95.948304-43.011309 95.948304-95.948304V245.660743c0-52.936995-43.011309-95.948304-95.948304-95.948304z m36.394185 628.626818c0 20.099515-16.294669 36.394184-36.394185 36.394184H154.675283c-20.099515 0-36.394184-16.294669-36.394184-36.394184V245.660743c0-20.099515 16.294669-36.394184 36.394184-36.394184h716.303715c20.099515 0 36.394184 16.294669 36.394185 36.394184v532.678514z" p-id="1458"></path><path d="M784.129241 280.400646H239.870759c-25.558643 0-46.319871 20.761228-46.31987 46.319871v264.684976c0 25.558643 20.761228 46.319871 46.31987 46.31987h544.258482c25.558643 0 46.319871-20.761228 46.31987-46.31987V326.720517c0-25.558643-20.761228-46.319871-46.31987-46.319871z m-544.258482 39.702747h544.258482c3.639418 0 6.617124 2.977706 6.617124 6.617124v136.230048l-55.831987-55.583844c-39.950889-39.78546-104.881422-39.868174-144.83231 0l-38.213894 38.048465c-21.42294 21.257512-56.162843 21.257512-77.420355 0-0.496284-0.496284-0.992569-0.909855-1.488853-1.406139l-0.496284-0.496284-0.578999-0.578999c-17.94895-16.542811-41.357027-25.145073-65.674959-24.152504-24.400646 0.992569-46.981583 11.41454-63.524394 29.446204L233.253635 567.004847V326.720517c0-3.639418 2.977706-6.617124 6.617124-6.617124z m544.258482 277.919224H258.729564l113.235541-122.830371c9.346688-10.173829 22.084653-16.046527 35.8979-16.625525 13.730533-0.578998 26.799354 4.218417 36.973182 13.48239 0.330856 0.330856 0.744426 0.661712 1.075283 1.075283 0.165428 0.165428 0.330856 0.330856 0.578998 0.496285 18.36252 18.36252 42.515024 27.461066 66.750243 27.461066 24.152504 0 48.387722-9.18126 66.750242-27.461066l38.213894-38.048466c24.48336-24.400646 64.268821-24.400646 88.75218 0l83.789338 83.541196V591.405493c0 3.639418-2.977706 6.617124-6.617124 6.617124z" p-id="1459"></path></svg>