<?xml version="1.0" standalone="no"?><!DOCTYPE svg PUBLIC "-//W3C//DTD SVG 1.1//EN" "http://www.w3.org/Graphics/SVG/1.1/DTD/svg11.dtd"><svg t="1684830107458" class="icon" viewBox="0 0 1024 1024" version="1.1" xmlns="http://www.w3.org/2000/svg" p-id="23882" xmlns:xlink="http://www.w3.org/1999/xlink" width="128" height="128"><path d="M122.368 165.888h778.24c-9.216 0-16.384-7.168-16.384-16.384v713.728c0-9.216 7.168-16.384 16.384-16.384h-778.24c9.216 0 16.384 7.168 16.384 16.384V150.016c0 8.192-6.656 15.872-16.384 15.872z m-32.768 684.544c0 26.112 20.992 47.104 47.104 47.104h750.08c26.112 0 47.104-20.992 47.104-47.104V162.304c0-26.112-20.992-47.104-47.104-47.104H136.704c-26.112 0-47.104 20.992-47.104 47.104v688.128z" p-id="23883" fill="#333333"></path><path d="M344.064 651.264H222.72V344.576h114.176c57.344 3.072 87.552 30.208 90.112 81.408 0 27.648-9.728 48.128-29.696 61.952 26.624 16.896 40.448 41.472 41.472 74.24 0 59.392-31.744 89.088-94.72 89.088zM274.432 393.728v74.24h54.784c29.696-1.024 45.056-14.336 46.08-39.936-2.048-21.504-17.408-33.28-46.08-33.792l-54.784-0.512z m57.856 124.416H274.432v87.552h61.952c32.768-1.024 49.152-15.36 50.176-43.008-0.512-29.184-18.944-43.52-54.272-44.544zM573.44 608.256l10.24 36.864c-15.872 6.144-31.232 9.216-46.08 10.24-38.4 1.024-57.344-17.92-56.32-56.32V468.992h-30.72v-46.08h31.232V368.64l51.712-25.088v79.872h43.008v46.08h-43.008v128.512c-1.024 11.776 3.584 17.408 13.312 16.384 5.632-0.512 14.848-2.048 26.624-6.144zM805.888 508.928v142.336h-51.712V510.464c0-30.72-11.264-46.08-33.792-46.08-31.744 2.048-48.128 18.944-50.176 50.176v136.192H619.52V423.424h50.176v20.48c17.92-17.92 37.376-26.624 59.392-26.624 49.152 3.072 74.752 33.792 76.8 91.648z" p-id="23884" fill="#333333"></path></svg>