<?xml version="1.0" standalone="no"?><!DOCTYPE svg PUBLIC "-//W3C//DTD SVG 1.1//EN" "http://www.w3.org/Graphics/SVG/1.1/DTD/svg11.dtd"><svg t="1686661911130" class="icon" viewBox="0 0 1024 1024" version="1.1" xmlns="http://www.w3.org/2000/svg" p-id="1872" xmlns:xlink="http://www.w3.org/1999/xlink" width="128" height="128"><path d="M122.88 165.888h778.24c-9.216 0-16.384-7.168-16.384-16.384v713.728c0-9.216 7.168-16.384 16.384-16.384H122.88c9.216 0 16.384 7.168 16.384 16.384V150.016c0 8.192-6.656 15.872-16.384 15.872z m-32.768 684.544c0 26.112 20.992 47.104 47.104 47.104h750.08c26.112 0 47.104-20.992 47.104-47.104V162.304c0-26.112-20.992-47.104-47.104-47.104H137.216c-26.112 0-47.104 20.992-47.104 47.104v688.128z" p-id="1873" fill="#333333"></path><path d="M802.304 358.912l-11.264-33.792h-57.856l-10.752 33.792H686.08l56.32-151.552h40.96l56.32 151.552h-37.376z m-36.352-111.616c-1.536-4.096-2.56-8.704-3.584-12.8h-0.512c-1.024 4.608-2.048 8.192-3.584 13.312l-16.896 51.2h43.52l-18.944-51.712zM306.688 354.304l-12.288-31.232H229.888l-11.776 31.232h-40.96l62.464-140.8h45.568L348.16 354.304h-41.472zM266.24 250.368c-1.536-4.096-3.072-8.192-4.096-11.776h-0.512c-1.024 4.096-2.048 7.68-4.096 12.288l-18.944 47.616H286.72l-20.48-48.128zM697.344 591.872V440.32H768c37.376 0 52.736 17.92 52.736 35.84s-9.216 30.208-29.184 35.84c21.504 2.56 35.328 20.48 35.328 35.328 0 28.672-15.872 45.056-55.808 45.056h-73.728z m34.304-125.952v35.84h30.208c13.824 0 22.528-7.68 22.528-18.944 0-8.704-6.144-16.896-22.528-16.896h-30.208z m0 60.928v39.936h33.792c16.896 0 25.6-7.68 25.6-20.48 0-10.24-8.704-19.456-25.088-19.456h-34.304zM796.672 709.12c-3.584-14.336-15.36-24.576-31.232-24.576-24.576 0-36.864 22.528-36.864 48.128 0 32.256 16.896 49.664 36.864 49.664 17.92 0 29.696-11.264 32.768-32.768l32.256 10.24c-7.168 33.28-29.184 52.224-65.024 52.224-46.08 0-72.704-32.768-72.704-78.848 0-47.104 29.696-77.312 72.192-77.312 34.816 0 57.856 21.504 64 46.08l-32.256 7.168zM364.032 244.224h258.56v29.184H364.032zM364.032 333.824h258.56v29.184H364.032zM178.176 423.424h444.928v29.184H178.176zM189.952 688.128v-140.8h78.336c41.472 0 58.88 16.896 58.88 33.28s-10.24 28.16-32.768 33.28c24.064 2.56 39.424 18.944 39.424 32.768 0 26.624-17.92 41.984-61.952 41.984h-81.92z m38.4-117.248v33.28h33.792c15.36 0 25.088-7.168 25.088-17.92 0-8.192-6.656-15.36-25.088-15.36h-33.792z m0 56.832v37.376h37.376c18.944 0 28.16-7.168 28.16-18.944 0-9.728-9.728-18.432-28.16-18.432h-37.376zM364.032 584.704h258.56v29.184H364.032zM364.032 674.304h258.56v29.184H364.032zM178.176 763.904h444.928v29.184H178.176z" p-id="1874" fill="#333333"></path></svg>