<svg t="1702278715756" class="icon" viewBox="0 0 1433 1024" version="1.1" xmlns="http://www.w3.org/2000/svg" p-id="15181" width="128" height="128"><path d="M1228.8 0a204.8 204.8 0 0 1 204.8 204.8v614.4a204.8 204.8 0 0 1-204.8 204.8H204.8a204.8 204.8 0 0 1-204.8-204.8V204.8a204.8 204.8 0 0 1 204.8-204.8z m0 136.533333H204.8a68.266667 68.266667 0 0 0-68.266667 68.266667v614.4a68.266667 68.266667 0 0 0 68.266667 68.266667h1024a68.266667 68.266667 0 0 0 68.266667-68.266667V204.8a68.266667 68.266667 0 0 0-68.266667-68.266667z m-231.662933 170.666667c49.0496 0 86.8352 8.3968 113.288533 25.258667 26.453333 16.7936 39.662933 45.294933 39.662933 85.469866 0 42.052267-15.121067 69.973333-56.456533 83.729067v3.447467c22.801067 4.983467 35.0208 15.803733 47.786667 32.426666 12.731733 16.622933 19.114667 36.795733 19.114666 60.5184 0 41.301333-14.779733 71.406933-44.3392 90.350934-29.525333 18.944-73.454933 28.398933-131.7888 28.398933-10.9568 0-22.289067-0.512-33.9968-1.536a48.401067 48.401067 0 0 1-44.2368-48.196267 35.362133 35.362133 0 0 1 40.174934-35.0208c12.014933 1.6384 22.391467 2.4576 31.095466 2.4576 25.4976 0 45.192533-3.345067 59.0848-10.0352 13.9264-6.690133 20.8896-16.861867 20.8896-35.601066 0-17.578667-7.645867-29.627733-22.869333-36.1472-15.291733-6.485333-38.365867-9.728-69.290667-9.728l-3.140266-0.238934a21.435733 21.435733 0 0 1-18.261334-21.1968v-31.163733c0-11.502933 9.3184-20.821333 20.821334-20.821333 29.013333 0 50.619733-3.003733 64.9216-8.9088 14.267733-5.9392 21.435733-18.090667 21.435733-36.420267 0-14.916267-5.802667-22.664533-17.408-28.398933-11.5712-5.768533-28.3648-8.635733-50.3808-8.635734a272.145067 272.145067 0 0 0-40.311467 3.310934 31.914667 31.914667 0 0 1-36.7616-31.5392v-0.887467c0-23.688533 17.408-43.758933 40.8576-47.172267l12.8-1.6384A341.162667 341.162667 0 0 1 997.137067 307.2z m-565.0432 5.7344c20.650667 0 37.376 16.725333 37.376 37.376v311.5008a49.2544 49.2544 0 1 1-98.474667 0V413.013333l-51.370667 9.898667A39.150933 39.150933 0 0 1 273.066667 384.443733c0-27.5456 19.456-51.268267 46.523733-56.6272l38.5024-7.611733c24.3712-4.846933 49.152-7.2704 74.001067-7.2704zM679.799467 307.2c46.353067 0 82.090667 9.557333 107.178666 28.672 25.122133 19.114667 37.6832 47.035733 37.6832 83.7632 0 22.186667-3.072 41.6768-9.284266 58.504533-6.144 16.827733-18.432 35.191467-36.795734 55.0912-12.219733 13.243733-48.810667 46.148267-109.7728 98.645334h122.641067a39.594667 39.594667 0 1 1 0 79.189333h-208.213333c-21.845333 0-39.594667-17.749333-39.594667-39.594667v-6.656c0-20.8896 9.1136-40.721067 24.951467-54.340266a7955.8656 7955.8656 0 0 0 82.807466-71.7824c24.746667-22.016 42.871467-40.96 54.4768-56.797867 11.605333-15.872 17.408-26.624 17.408-40.379733 0-18.3296-5.051733-27.579733-15.086933-35.259734-10.0352-7.645867-26.453333-11.4688-49.2544-11.4688-12.765867 0-29.661867 2.184533-50.619733 6.587734a34.474667 34.474667 0 0 1-41.506134-33.723734c0-26.146133 18.705067-48.5376 44.4416-53.179733C638.0544 309.589333 660.923733 307.2 679.799467 307.2z" fill="#515151" p-id="15182" data-spm-anchor-id="a313x.search_index.0.i33.1c903a81jYIaKl" class="selected"></path></svg>