<svg t="1700817054233" class="icon" viewBox="0 0 1024 1024" version="1.1" xmlns="http://www.w3.org/2000/svg" p-id="10950" width="200" height="200"><path d="M154.487467 396.629333a170.666667 170.666667 0 0 1 170.666666-170.666666h370.688a170.666667 170.666667 0 0 1 170.666667 170.666666v32.3584a68.266667 68.266667 0 0 1 62.395733 67.9936v269.994667a68.266667 68.266667 0 0 1-68.266666 68.266667h-56.661334a68.266667 68.266667 0 0 1-68.266666-68.266667V496.981333a68.266667 68.266667 0 0 1 62.464-67.9936V396.629333a102.4 102.4 0 0 0-102.4-102.4H562.312533v135.645867a68.266667 68.266667 0 0 1 55.773867 67.106133v269.994667a68.266667 68.266667 0 0 1-68.266667 68.266667h-56.661333a68.266667 68.266667 0 0 1-68.266667-68.266667V496.981333a68.266667 68.266667 0 0 1 68.266667-68.266666h0.887467V294.229333H325.154133a102.4 102.4 0 0 0-102.4 102.4v32.1536a68.266667 68.266667 0 0 1 65.536 68.266667v269.9264a68.266667 68.266667 0 0 1-68.266666 68.266667h-56.661334a68.266667 68.266667 0 0 1-68.266666-68.266667V496.981333a68.266667 68.266667 0 0 1 59.392-67.652266v-32.768z m65.536 100.352h-56.661334v269.994667h56.661334V496.981333z m584.021333 0h56.593067v269.994667h-56.661334V496.981333z m-254.225067 0h-56.661333v269.994667h56.661333V496.981333z" fill="#555555" p-id="10951"></path></svg>