<?xml version="1.0" standalone="no"?><!DOCTYPE svg PUBLIC "-//W3C//DTD SVG 1.1//EN" "http://www.w3.org/Graphics/SVG/1.1/DTD/svg11.dtd"><svg t="1717577580419" class="icon" viewBox="0 0 1024 1024" version="1.1" xmlns="http://www.w3.org/2000/svg" p-id="6391" xmlns:xlink="http://www.w3.org/1999/xlink" width="128" height="128"><path d="M896 0a128 128 0 0 1 128 128v768a128 128 0 0 1-128 128H128a128 128 0 0 1-128-128V128a128 128 0 0 1 128-128h768z m-32 32h-704a128 128 0 0 0-128 128v704a128 128 0 0 0 128 128h704a128 128 0 0 0 128-128v-704a128 128 0 0 0-128-128z" fill="#555555" p-id="6392"></path><path d="M469.376 832c-4.288 0-8.512-2.112-10.688-2.112a25.472 25.472 0 0 1-10.624-19.2v-185.6L260.48 354.112a22.912 22.912 0 0 1-2.176-23.424 22.4 22.4 0 0 1 19.2-10.688h468.992a22.4 22.4 0 0 1 19.2 10.688c4.224 6.4 2.112 14.912-2.176 21.312L576 625.088V768c0 8.512-4.288 14.912-12.8 19.2l-85.312 42.688C475.776 832 473.6 832 469.376 832z" fill="#555555" p-id="6393"></path></svg>