<?xml version="1.0" standalone="no"?><!DOCTYPE svg PUBLIC "-//W3C//DTD SVG 1.1//EN" "http://www.w3.org/Graphics/SVG/1.1/DTD/svg11.dtd"><svg t="1717577479044" class="icon" viewBox="0 0 1024 1024" version="1.1" xmlns="http://www.w3.org/2000/svg" p-id="5322" xmlns:xlink="http://www.w3.org/1999/xlink" width="128" height="128"><path d="M511.059493 1023.948736a46.6032 46.6032 0 0 1-34.765987-13.235308A87398.336666 87398.336666 0 0 1 151.096375 671.162511 16.124707 16.124707 0 0 1 146.529262 652.521231a42.502119 42.502119 0 0 1 39.799133-18.64128h650.394261a44.832279 44.832279 0 0 1 39.705926 18.64128 16.404326 16.404326 0 0 1-4.101081 18.64128c-9.973085 9.973085-107.653392 112.779744-193.776106 203.376366l-130.116135 136.174551a54.246125 54.246125 0 0 1-37.375767 13.235308z m325.663163-633.244283H186.328395a42.502119 42.502119 0 0 1-39.799133-18.64128 16.124707 16.124707 0 0 1 4.567113-17.802423l72.980612-76.615661C314.487195 182.481355 465.57477 24.030474 474.615791 12.659293A54.805363 54.805363 0 0 1 511.525525 0.076429a48.094503 48.094503 0 0 1 35.325226 12.582864c5.68559 5.68559 65.24448 68.320291 134.217216 140.928078l0.466032 0.559238C766.165411 243.158721 862.168003 344.101253 872.327501 354.26075a16.683946 16.683946 0 0 1 4.194288 18.64128 42.874944 42.874944 0 0 1-39.799133 17.802423z" fill="#555555" p-id="5323"></path></svg>