<svg t="1702278380397" class="icon" viewBox="0 0 1024 1024" version="1.1" xmlns="http://www.w3.org/2000/svg" p-id="9649" width="128" height="128"><path d="M928 883.2h-832c-44.8 0-83.2-38.4-83.2-83.2v-576c0-44.8 38.4-83.2 83.2-83.2h832c44.8 0 83.2 38.4 83.2 83.2v576c0 44.8-38.4 83.2-83.2 83.2zM115.2 780.8h793.6V243.2H115.2v537.6z" fill="#515151" p-id="9650" data-spm-anchor-id="a313x.search_index.0.i15.1c903a81jYIaKl" class="selected"></path><path d="M646.4 659.2c-25.6 0-51.2-25.6-51.2-51.2v-192c0-25.6 25.6-51.2 51.2-51.2s51.2 25.6 51.2 51.2v192c0 25.6-19.2 51.2-51.2 51.2zM364.8 364.8c25.6 0 38.4 12.8 38.4 38.4V448c-6.4 0 0 0 6.4-6.4 19.2-12.8 32-19.2 38.4-19.2 25.6 0 38.4 19.2 38.4 44.8 0 12.8-12.8 32-44.8 38.4 0 0-6.4 6.4-12.8 6.4 0 0 6.4 6.4 19.2 6.4 32 12.8 44.8 25.6 44.8 38.4 0 25.6-12.8 44.8-38.4 44.8-6.4 0-19.2-6.4-38.4-19.2-12.8 0-19.2-6.4-19.2-12.8v44.8c0 25.6-12.8 32-38.4 38.4-25.6 0-38.4-12.8-38.4-38.4v-25.6-19.2c6.4 6.4 0 12.8-6.4 19.2-19.2 12.8-32 19.2-38.4 19.2-25.6 0-38.4-19.2-38.4-44.8 0-19.2 12.8-32 44.8-38.4l12.8-12.8s-6.4-6.4-19.2-6.4c-25.6-12.8-38.4-25.6-38.4-38.4 0-25.6 12.8-44.8 38.4-44.8 6.4 0 19.2 6.4 38.4 19.2 6.4 6.4 12.8 6.4 12.8 12.8v-19.2-25.6c0-25.6 12.8-38.4 38.4-44.8z" fill="#515151" p-id="9651" data-spm-anchor-id="a313x.search_index.0.i16.1c903a81jYIaKl" class="selected"></path></svg>