<svg t="1701174604981" class="icon" viewBox="0 0 1024 1024" version="1.1" xmlns="http://www.w3.org/2000/svg" p-id="17897" data-spm-anchor-id="a313x.search_index.0.i37.fbf73a81tAv71k" width="128" height="128"><path d="M320 640m-64 0a64 64 0 1 0 128 0 64 64 0 1 0-128 0Z" fill="#515151" p-id="17898" data-spm-anchor-id="a313x.search_index.0.i38.fbf73a81tAv71k" class="selected"></path><path d="M512 640m-64 0a64 64 0 1 0 128 0 64 64 0 1 0-128 0Z" fill="#515151" p-id="17899" data-spm-anchor-id="a313x.search_index.0.i39.fbf73a81tAv71k" class="selected"></path><path d="M704 640m-64 0a64 64 0 1 0 128 0 64 64 0 1 0-128 0Z" fill="#515151" p-id="17900" data-spm-anchor-id="a313x.search_index.0.i36.fbf73a81tAv71k" class="selected"></path><path d="M972.8 192H896c0-32-38.4-64-64-64H192c-32 0-64 38.4-64 64H64c-32 0-64 32-64 64v448c0 32 44.8 64 64 64h64c0 32 44.8 64 64 64h640c32 0 64-38.4 64-64h64c32 0 64-38.4 64-64V256c0-32-25.6-64-51.2-64zM128 704H64V256h64v448z m704 64H192V192h640v576z m128-64h-64V256h64v448z" p-id="17901" data-spm-anchor-id="a313x.search_index.0.i35.fbf73a81tAv71k" class="selected" fill="#515151"></path></svg>