<svg t="1701174966623" class="icon" viewBox="0 0 1024 1024" version="1.1" xmlns="http://www.w3.org/2000/svg" p-id="21144" width="128" height="128"><path d="M950.4 108.8H73.6C32 108.8 0 144 0 182.4v659.2c0 41.6 32 73.6 73.6 73.6h876.8c41.6 0 73.6-32 73.6-73.6V182.4c0-38.4-32-73.6-73.6-73.6z m0 694.4c0 19.2-16 35.2-35.2 35.2H108.8c-22.4 0-35.2-16-35.2-35.2V220.8c0-19.2 16-35.2 35.2-35.2h803.2c22.4 0 35.2 16 35.2 35.2v582.4h3.2z" fill="#515151" p-id="21145" data-spm-anchor-id="a313x.search_index.0.i50.fbf73a81tAv71k" class="selected"></path><path d="M336 579.2h483.2c19.2 0 35.2-16 35.2-35.2s-16-35.2-35.2-35.2H336c-19.2 0-35.2 16-35.2 35.2s12.8 35.2 35.2 35.2zM336 748.8h259.2c19.2 0 35.2-16 35.2-35.2s-16-35.2-35.2-35.2h-259.2c-19.2 0-35.2 16-35.2 35.2s12.8 35.2 35.2 35.2zM182.4 256c-22.4 0-35.2 16-35.2 35.2v291.2c0 19.2 16 35.2 35.2 35.2s35.2-16 35.2-35.2V291.2C220.8 275.2 204.8 256 182.4 256zM336 406.4h483.2c19.2 0 35.2-16 35.2-35.2s-16-35.2-35.2-35.2H336c-19.2 0-35.2 16-35.2 35.2s12.8 35.2 35.2 35.2zM876.8 803.2c22.4 0 35.2-16 35.2-35.2v-147.2l-182.4 182.4h147.2z" fill="#515151" p-id="21146" data-spm-anchor-id="a313x.search_index.0.i51.fbf73a81tAv71k" class="selected"></path></svg>