<svg width="200" height="200" viewBox="0 0 200 200" fill="none" xmlns="http://www.w3.org/2000/svg">
<g clip-path="url(#clip0_135_2)">
<path d="M200 45.0097V15.0097C200 11.0315 198.42 7.21615 195.607 4.4031C192.794 1.59006 188.978 0.00970331 185 0.00970331L45 0.00970331C41.0218 0.00970331 37.2064 1.59006 34.3934 4.4031C33.0005 5.79598 31.8956 7.44957 31.1418 9.26945C30.388 11.0893 30 13.0399 30 15.0097V45.0097C30 46.9795 30.388 48.9301 31.1418 50.75C31.8956 52.5698 33.0005 54.2234 34.3934 55.6163C35.7863 57.0092 37.4399 58.1141 39.2597 58.8679C41.0796 59.6217 43.0302 60.0097 45 60.0097L185 60.0097C186.97 60.0097 188.92 59.6217 190.74 58.8679C192.56 58.1141 194.214 57.0092 195.607 55.6163C196.999 54.2234 198.104 52.5698 198.858 50.75C199.612 48.9301 200 46.9795 200 45.0097ZM190 15.0097V45.0097C190 45.6663 189.871 46.3165 189.619 46.9231C189.368 47.5297 189 48.0809 188.536 48.5452C188.071 49.0095 187.52 49.3778 186.913 49.6291C186.307 49.8804 185.657 50.0097 185 50.0097L45 50.0097C43.6739 50.0097 42.4022 49.4829 41.4645 48.5452C40.5268 47.6076 40 46.3358 40 45.0097V15.0097C40 13.6836 40.5268 12.4119 41.4645 11.4742C42.4022 10.5365 43.6739 10.0097 45 10.0097L185 10.0097C186.326 10.0097 187.598 10.5365 188.536 11.4742C189.473 12.4119 190 13.6836 190 15.0097ZM200 120.01L200 90.0097C200 86.0315 198.42 82.2161 195.607 79.4031C192.794 76.5901 188.978 75.0097 185 75.0097L45 75.0097C41.0218 75.0097 37.2064 76.5901 34.3934 79.4031C31.5803 82.2161 30 86.0315 30 90.0097L30 120.01C30 123.988 31.5803 127.803 34.3934 130.616C37.2064 133.429 41.0218 135.01 45 135.01L185 135.01C186.97 135.01 188.92 134.622 190.74 133.868C192.56 133.114 194.214 132.009 195.607 130.616C196.999 129.223 198.104 127.57 198.858 125.75C199.612 123.93 200 121.98 200 120.01ZM190 90.0097V120.01C190 120.666 189.871 121.316 189.619 121.923C189.368 122.53 189 123.081 188.536 123.545C188.071 124.01 187.52 124.378 186.913 124.629C186.307 124.88 185.657 125.01 185 125.01L45 125.01C43.6739 125.01 42.4022 124.483 41.4645 123.545C40.5268 122.608 40 121.336 40 120.01L40 90.0097C40 88.6836 40.5268 87.4118 41.4645 86.4742C42.4022 85.5365 43.6739 85.0097 45 85.0097L185 85.0097C186.326 85.0097 187.598 85.5365 188.536 86.4742C189.473 87.4118 190 88.6836 190 90.0097ZM200 200.01H190V165.01C190 163.839 189.59 162.706 188.841 161.807C188.092 160.908 187.051 160.3 185.9 160.09L185 160.01L45 160.01C43.8297 160.009 42.6964 160.419 41.7974 161.169C40.8984 161.918 40.2906 162.959 40.08 164.11L40 165.01V200.01H30V165.01C30.0002 161.281 31.3892 157.686 33.8962 154.926C36.4032 152.165 39.8484 150.438 43.56 150.08L45 150.01L185 150.01C188.729 150.01 192.324 151.399 195.084 153.906C197.844 156.413 199.572 159.858 199.93 163.57L200 165.01V200.01ZM10 55.0097C10.0023 56.2592 9.53672 57.4642 8.69492 58.3875C7.85313 59.3109 6.69614 59.8856 5.45179 59.9985C4.20744 60.1113 2.96591 59.7543 1.97169 58.9975C0.977465 58.2408 0.302604 57.1392 0.0800014 55.9097L0 55.0097V5.0097C-0.00230013 3.76024 0.463285 2.5552 1.30508 1.63187C2.14687 0.708542 3.30387 0.133845 4.54822 0.0209506C5.79257 -0.0919441 7.0341 0.265145 8.02832 1.0219C9.02254 1.77866 9.6974 2.88023 9.92 4.1097L10 5.0097V55.0097ZM10 130.01C10.0023 131.259 9.53672 132.464 8.69492 133.388C7.85313 134.311 6.69614 134.886 5.45179 134.998C4.20744 135.111 2.96591 134.754 1.97169 133.997C0.977465 133.241 0.302604 132.139 0.0800014 130.91L0 130.01L0 80.0097C-0.00230013 78.7602 0.463285 77.5552 1.30508 76.6319C2.14687 75.7085 3.30387 75.1338 4.54822 75.021C5.79257 74.9081 7.0341 75.2651 8.02832 76.0219C9.02254 76.7787 9.6974 77.8802 9.92 79.1097L10 80.0097L10 130.01ZM10 200.01H0V155.01C-0.00230013 153.76 0.463285 152.555 1.30508 151.632C2.14687 150.709 3.30387 150.134 4.54822 150.021C5.79257 149.908 7.0341 150.265 8.02832 151.022C9.02254 151.779 9.6974 152.88 9.92 154.11L10 155.01V200.01Z" fill="#555555"/>
</g>
<defs>
<clipPath id="clip0_135_2">
<rect width="200" height="200" fill="white" transform="matrix(0 1 -1 0 200 0)"/>
</clipPath>
</defs>
</svg>
