<?xml version="1.0" standalone="no"?><!DOCTYPE svg PUBLIC "-//W3C//DTD SVG 1.1//EN" "http://www.w3.org/Graphics/SVG/1.1/DTD/svg11.dtd"><svg t="1715054902331" class="icon" viewBox="0 0 1024 1024" version="1.1" xmlns="http://www.w3.org/2000/svg" p-id="4276" xmlns:xlink="http://www.w3.org/1999/xlink" width="128" height="128"><path d="M509.312 1019.712c-280.832 0-509.312-228.48-509.312-509.312S228.48 1.152 509.312 1.152s509.312 228.48 509.312 509.248c0 280.832-228.48 509.312-509.312 509.312z m0-950.656a441.92 441.92 0 0 0-441.408 441.344 441.92 441.92 0 0 0 441.408 441.408 441.92 441.92 0 0 0 441.408-441.408A441.92 441.92 0 0 0 509.312 69.12z" fill="#555555" p-id="4277"></path><path d="M255.808 544.384H33.984a33.92 33.92 0 1 1 0-67.904h221.824a33.92 33.92 0 1 1 0 67.84zM984.64 544.384h-221.824a33.92 33.92 0 1 1 0-67.904h221.824a33.92 33.92 0 1 1 0 67.84zM509.312 290.88a33.92 33.92 0 0 1-33.92-33.92V35.008a33.92 33.92 0 1 1 67.84 0v221.824a33.92 33.92 0 0 1-33.92 33.92zM509.312 1003.904a33.92 33.92 0 0 1-33.92-33.92v-221.888a33.92 33.92 0 1 1 67.84 0v221.824a33.92 33.92 0 0 1-33.92 33.92z" fill="#555555" p-id="4278"></path></svg>