<?xml version="1.0" standalone="no"?><!DOCTYPE svg PUBLIC "-//W3C//DTD SVG 1.1//EN" "http://www.w3.org/Graphics/SVG/1.1/DTD/svg11.dtd"><svg t="1687579537495" class="icon" viewBox="0 0 1024 1024" version="1.1" xmlns="http://www.w3.org/2000/svg" p-id="4124" xmlns:xlink="http://www.w3.org/1999/xlink" width="128" height="128"><path d="M358.4 153.6H102.4v716.8h256V153.6z m102.4 0v716.8h460.8V153.6H460.8zM0 153.6c0-56.32 46.08-102.4 102.4-102.4h819.2a102.4 102.4 0 0 1 102.4 102.4v716.8a102.4 102.4 0 0 1-102.4 102.4H102.4a102.4 102.4 0 0 1-102.4-102.4V153.6z m153.6 51.2h153.6v102.4H153.6V204.8z m0 153.6h153.6v102.4H153.6V358.4z m0 153.6h153.6v102.4H153.6v-102.4z" p-id="4125" fill="#333333"></path></svg>