<svg t="1735108512202" class="icon" viewBox="0 0 1199 1024" version="1.1" xmlns="http://www.w3.org/2000/svg" p-id="4356" width="64" height="64"><path d="M1067.236414 0.289799a131.782678 131.782678 0 0 1 111.415728 91.049778c42.529896 102.43075 10.782974 302.499261-12.578969 412.718992A1610.919067 1610.919067 0 0 1 1023.508521 926.359538a162.810603 162.810603 0 0 1-108.419735 95.841766 108.779734 108.779734 0 0 1-19.169953 1.796996c-116.806715 0-228.222443-150.949631-295.910278-265.361352C531.721722 873.047669 420.903992 1023.9993 304.097278 1023.9993a99.135758 99.135758 0 0 1-19.167954-1.796996 162.331604 162.331604 0 0 1-109.019733-95.841766A1633.322012 1633.322012 0 0 1 33.344939 504.057569C10.580994 393.840838-21.764927 193.771327 20.764969 91.338577A131.782678 131.782678 0 0 1 132.181697 0.290799C237.008441-6.898183 361.602137 120.091507 548.493681 425.587761c19.167953 31.147924 36.539911 59.899854 51.514874 85.059792 14.974963-25.159939 32.346921-53.911868 50.915876-85.059792C837.815975 120.091507 961.810672-6.898183 1067.236414 0.289799zM136.374687 135.06747l-1.197997 2.994993-1.796996 4.791988c-22.762944 64.692842-5.989985 237.208421 41.330899 424.098965a1141.534213 1141.534213 0 0 0 121.599704 319.872219 23.420943 23.420943 0 0 0 29.949926 7.786981A391.932043 391.932043 0 0 0 446.062931 768.219924a1293.862841 1293.862841 0 0 0 82.662798-136.573666c-28.152931-47.920883-56.905861-95.242767-86.256789-142.564652-162.331604-265.960351-247.990395-339.039172-282.73331-359.406123a17.969956 17.969956 0 0 0-23.360943 5.389987z m927.867735 2.994993a15.933961 15.933961 0 0 0-21.564948-9.583977 10.122975 10.122975 0 0 0-2.994992 1.197997c-34.143917 19.766952-119.802708 92.247775-282.73331 359.406123-28.75293 47.321884-58.103858 95.242767-86.856788 142.564652a742.294188 742.294188 0 0 0 198.272516 260.569364 26.835934 26.835934 0 0 0 36.539911-7.786981 1150.100192 1150.100192 0 0 0 119.801707-317.476225c48.519882-191.682532 65.292841-368.391101 39.534904-428.890953z" p-id="4357" data-spm-anchor-id="a313x.search_index.0.i1.f4d53a81fzN6nw" class="selected" fill="#8a8a8a"></path></svg>