<svg t="1690808078816" class="icon" viewBox="0 0 1024 1024" version="1.1" xmlns="http://www.w3.org/2000/svg" p-id="12798" width="200" height="200"><path d="M184.203636 412.113455L702.999273 930.909091H186.205091a93.090909 93.090909 0 0 1-93.090909-93.090909L93.090909 503.226182l91.112727-91.112727zM568.669091 93.090909a253.323636 253.323636 0 0 0-79.918546 184.855273c0 67.630545 26.461091 129.070545 69.725091 174.661818l5.282909 5.399273 164.491637 163.607272c8.378182 8.331636 21.643636 8.96 30.789818 1.908364l2.187636-1.908364 164.491637-163.67709c1.768727-1.745455 3.490909-3.514182 5.213091-5.329455V837.818182a93.090909 93.090909 0 0 1-93.090909 93.090909h-36.072728L233.588364 362.728727 503.226182 93.090909h65.466182z m176.081454 0c102.772364 0 186.181818 87.668364 186.181819 195.863273 0 54.109091-20.829091 103.051636-54.574546 138.496l-119.621818 125.905454a16.407273 16.407273 0 0 1-23.970909 0l-119.645091-125.858909C579.374545 392.052364 558.545455 343.109818 558.545455 289.000727 558.545455 180.805818 641.954909 93.090909 744.727273 93.090909zM404.48 93.090909L93.090909 404.456727V186.181818a93.090909 93.090909 0 0 1 93.090909-93.090909h218.298182zM744.727273 186.181818a93.090909 93.090909 0 1 0 0 186.181818 93.090909 93.090909 0 0 0 0-186.181818z" fill="#555555" p-id="12799"></path></svg>