<svg t="1701174645245" class="icon" viewBox="0 0 1024 1024" version="1.1" xmlns="http://www.w3.org/2000/svg" p-id="19057" width="128" height="128"><path d="M398 465.2h505.7c30.8 0 55.7 15 55.7 50.5s-25 50.4-55.7 50.4H398c-30.8-0.1-55.7-14.9-55.7-50.4s25-50.4 55.7-50.4v-0.1zM123.7 773.1h779.9c30.8 0 55.7 14.8 55.7 50.3 0 35.7-25 50.5-55.7 50.5H123.7C92.9 874 68 859.1 68 823.5c0-35.6 25-50.4 55.7-50.4z m779.9-515H123.7c-30.8 0-55.7-14.8-55.7-50.3 0-35.6 25-50.4 55.7-50.4h779.9c30.8 0 55.7 14.8 55.7 50.4 0 35.4-25 50.3-55.7 50.3zM68 515.6l178.6-89.3v178.6L68 515.6z" p-id="19058" data-spm-anchor-id="a313x.search_index.0.i44.fbf73a81tAv71k" class="selected" fill="#515151"></path></svg>