<?xml version="1.0" standalone="no"?><!DOCTYPE svg PUBLIC "-//W3C//DTD SVG 1.1//EN" "http://www.w3.org/Graphics/SVG/1.1/DTD/svg11.dtd"><svg t="1677121140875" class="icon" viewBox="0 0 1024 1024" version="1.1" xmlns="http://www.w3.org/2000/svg" p-id="4019" xmlns:xlink="http://www.w3.org/1999/xlink" width="128" height="128"><path d="M122.368 165.888h778.24c-9.216 0-16.384-7.168-16.384-16.384v713.728c0-9.216 7.168-16.384 16.384-16.384h-778.24c9.216 0 16.384 7.168 16.384 16.384V150.016c0 8.192-6.656 15.872-16.384 15.872z m-32.768 684.544c0 26.112 20.992 47.104 47.104 47.104h750.08c26.112 0 47.104-20.992 47.104-47.104V162.304c0-26.112-20.992-47.104-47.104-47.104H136.704c-26.112 0-47.104 20.992-47.104 47.104v688.128z" p-id="4020" fill="#333333"></path><path d="M401.92 478.208v41.472H323.072v87.552h-43.008v-87.552H201.728v-41.472h78.336V390.656h43.008v87.552h78.848zM603.136 425.984c0 27.648-10.752 48.64-32.768 63.488 28.672 14.848 43.008 39.936 43.008 75.264-2.048 59.392-33.792 89.6-96.256 91.648-61.44-2.048-92.672-32.768-94.72-91.648 1.024-33.28 15.36-58.88 43.008-75.264-21.504-14.848-32.768-35.84-32.768-63.488 4.096-56.32 32.256-86.016 84.48-88.576 55.296 3.072 83.968 32.768 86.016 88.576z m-84.48 186.88c28.672-2.048 44.032-17.92 46.08-47.616-1.024-33.28-16.896-50.688-47.616-51.712-29.696 1.024-45.056 18.432-46.08 51.712 1.024 30.72 16.896 46.592 47.616 47.616z m-1.536-228.352c-20.48 1.024-32.768 14.336-35.328 39.936 1.024 28.672 12.8 43.52 35.328 44.544 22.528-2.048 34.304-15.872 35.328-41.472-0.512-27.648-12.8-41.984-35.328-43.008zM819.2 412.672l-48.64 17.92c-5.12-29.696-16.896-44.544-35.328-44.544-29.696 2.048-46.08 29.184-48.64 81.408 12.8-16.896 30.208-25.088 51.712-25.088 53.248 4.096 81.408 38.912 84.48 104.96-2.048 71.168-33.792 107.52-94.72 109.568-62.976 1.024-94.208-47.104-93.184-143.36 1.024-114.688 34.816-173.056 101.888-176.128 41.984 0 69.632 25.088 82.432 75.264z m-91.648 198.656c27.648-1.024 41.984-21.504 43.008-61.952 0-37.376-14.336-56.832-43.008-57.856-25.6 2.048-39.424 19.968-41.472 53.248 1.024 43.008 14.848 65.536 41.472 66.56z" p-id="4021" fill="#333333"></path></svg>