<svg t="1717593856878" class="icon" viewBox="0 0 1024 1024" version="1.1" xmlns="http://www.w3.org/2000/svg" p-id="4279" width="48" height="48"><path d="M157.500952 894.683429v-108.592762a36.181333 36.181333 0 1 1 72.411429 0v108.592762a36.181333 36.181333 0 1 1-72.362667 0z m0-325.729524V460.409905a36.181333 36.181333 0 1 1 72.411429 0v108.544a36.181333 36.181333 0 1 1-72.362667 0z m0-398.092191V62.317714a36.181333 36.181333 0 1 1 72.411429 0v108.544a36.181333 36.181333 0 1 1-72.362667 0z" fill="#707070" p-id="4280" data-spm-anchor-id="a313x.search_index.0.i1.345b3a81ixPcFO" class="selected"></path><path d="M338.505143 315.63581a144.774095 144.774095 0 1 1-289.548191 0 144.774095 144.774095 0 0 1 289.548191 0z m-144.822857-72.362667a72.362667 72.362667 0 1 0 0.048762 144.774095 72.362667 72.362667 0 0 0 0-144.822857z m144.822857 434.273524a144.774095 144.774095 0 1 1-289.548191 0 144.774095 144.774095 0 0 1 289.548191 0z m-144.822857-72.411429a72.362667 72.362667 0 1 0 0.048762 144.822857 72.362667 72.362667 0 0 0 0-144.822857z m723.870476-289.499428H410.86781a36.181333 36.181333 0 1 1 0-72.411429h506.63619a36.181333 36.181333 0 1 1 0 72.411429zM630.00381 424.17981H408.771048a34.133333 34.133333 0 0 1-34.133334-34.133334v-4.096a34.133333 34.133333 0 0 1 34.133334-34.133333h221.281523a34.133333 34.133333 0 0 1 34.133334 34.133333V390.095238a34.133333 34.133333 0 0 1-34.133334 34.133333z m287.50019 253.366857H410.86781a36.181333 36.181333 0 1 1 0-72.411429h506.63619a36.181333 36.181333 0 1 1 0 72.411429zM630.00381 786.041905H408.771048a34.133333 34.133333 0 0 1-34.133334-34.133334v-4.096a34.133333 34.133333 0 0 1 34.133334-34.133333h221.281523a34.133333 34.133333 0 0 1 34.133334 34.133333v4.144762a34.133333 34.133333 0 0 1-34.133334 34.133334z" fill="#707070" p-id="4281" data-spm-anchor-id="a313x.search_index.0.i0.345b3a81ixPcFO" class="selected"></path></svg>