<svg t="1705547851136" class="icon" viewBox="0 0 1024 1024" version="1.1" xmlns="http://www.w3.org/2000/svg" p-id="5707" width="200" height="200"><path d="M841.142857 841.142857V182.857143H182.857143v658.285714h658.285714zM109.714286 182.857143a73.142857 73.142857 0 0 1 73.142857-73.142857h658.285714a73.142857 73.142857 0 0 1 73.142857 73.142857v658.285714a73.142857 73.142857 0 0 1-73.142857 73.142857H182.857143a73.142857 73.142857 0 0 1-73.142857-73.142857V182.857143z m195.291428 109.129143l153.380572 444.854857a18.285714 18.285714 0 0 0 34.523428 0.146286l73.398857-207.250286 192-73.216a18.285714 18.285714 0 0 0-0.365714-34.304L328.411429 268.8a18.285714 18.285714 0 0 0-23.405715 23.186286z" fill="#555555" p-id="5708"></path></svg>