<svg t="1726236067153" class="icon" viewBox="0 0 1024 1024" version="1.1" xmlns="http://www.w3.org/2000/svg" p-id="6664" width="64" height="64"><path d="M764.8 544c-121.6 0-220.8 99.2-220.8 220.8 0 121.6 99.2 220.8 220.8 220.8s220.8-99.2 220.8-220.8c0-121.6-99.2-220.8-220.8-220.8z m0 377.6c-86.4 0-156.8-70.4-156.8-156.8s70.4-156.8 156.8-156.8 156.8 70.4 156.8 156.8-70.4 156.8-156.8 156.8zM982.4 422.4l-448-384c-12.8-9.6-28.8-9.6-41.6 0l-448 384c-12.8 9.6-16 25.6-9.6 35.2 3.2 12.8 16 22.4 28.8 22.4h896c12.8 0 25.6-9.6 28.8-22.4 6.4-9.6 3.2-25.6-6.4-35.2z m-832-6.4L512 105.6 873.6 416H150.4zM448 544H64c-19.2 0-32 12.8-32 32v384c0 19.2 12.8 32 32 32h384c19.2 0 32-12.8 32-32V576c0-19.2-12.8-32-32-32z m-32 384H96V608h320v320z" fill="#555555" p-id="6665" data-spm-anchor-id="a313x.search_index.0.i0.6ead3a81kmWUH1" class="selected"></path></svg>