<svg t="1688702548165" class="icon" viewBox="0 0 1024 1024" version="1.1" xmlns="http://www.w3.org/2000/svg" p-id="17712" width="200" height="200"><path d="M230.44864 0h-153.6A76.8 76.8 0 0 0 0.04864 76.8v716.8A76.8 76.8 0 0 0 76.84864 870.4h153.6A76.8 76.8 0 0 0 307.24864 793.6v-716.8A76.8 76.8 0 0 0 230.44864 0z m-153.6 51.2h153.6a25.6 25.6 0 0 1 25.6 25.6v716.8a25.6 25.6 0 0 1-25.6 25.6h-153.6a25.6 25.6 0 0 1-25.6-25.6v-716.8a25.6 25.6 0 0 1 25.6-25.6zM614.44864 0H460.84864a76.8 76.8 0 0 0-76.8 76.8v716.8A76.8 76.8 0 0 0 460.84864 870.4h153.6a76.8 76.8 0 0 0 76.8-76.8v-716.8A76.8 76.8 0 0 0 614.44864 0zM460.84864 51.2h153.6a25.6 25.6 0 0 1 25.6 25.6v716.8a25.6 25.6 0 0 1-25.6 25.6H460.84864a25.6 25.6 0 0 1-25.6-25.6v-716.8A25.6 25.6 0 0 1 460.84864 51.2zM1024.04864 0v51.2h-179.2a25.6 25.6 0 0 0-25.1904 20.992L819.24864 76.8v716.8a25.6 25.6 0 0 0 20.992 25.1904l4.608 0.4096H1024.04864v51.2h-179.2a76.8 76.8 0 0 1-76.4416-69.4272L768.04864 793.6v-716.8A76.8 76.8 0 0 1 837.47584 0.3584L844.84864 0H1024.04864zM281.64864 972.8a25.6 25.6 0 0 1 4.608 50.7904L281.64864 1024h-256a25.6 25.6 0 0 1-4.608-50.7904L25.64864 972.8h256zM665.64864 972.8a25.6 25.6 0 0 1 4.608 50.7904L665.64864 1024H409.64864a25.6 25.6 0 0 1-4.608-50.7904L409.64864 972.8h256zM1024.04864 972.8v51.2h-230.4a25.6 25.6 0 0 1-4.608-50.7904L793.64864 972.8H1024.04864z" fill="#555555" p-id="17713"></path></svg>