<svg t="1701173491089" class="icon" viewBox="0 0 1024 1024" version="1.1" xmlns="http://www.w3.org/2000/svg" p-id="4213" width="128" height="128"><path d="M558.464 385.6l-3.456-2.176c-28.032-17.28-51.584-31.872-71.04-40.96-19.84-9.088-42.368-16-65.92-8.768a90.688 90.688 0 0 0-40.192 25.792c-15.872 17.408-21.12 40.192-23.488 62.976-2.368 22.72-2.368 52.032-2.368 87.68v3.712c0 35.712 0 65.024 2.368 87.68 2.368 22.784 7.616 45.568 23.488 62.976 10.88 12.032 24.704 20.992 40.256 25.792 23.488 7.296 46.08 0.384 65.856-8.768 19.456-9.088 43.008-23.616 71.04-40.96l3.456-2.112c29.056-18.048 53.312-33.024 70.912-46.976 18.112-14.4 34.048-31.36 39.744-55.104 3.84-16 3.84-32.768 0-48.704-5.76-23.68-21.632-40.768-39.744-55.104-17.6-14.016-41.856-28.992-70.912-46.976z m-133.312 16.96c3.584-3.84 7.68-6.4 11.84-7.68 0.32-0.128 4.544-1.472 20.032 5.76 15.616 7.168 35.84 19.584 66.048 38.336 31.232 19.328 52.224 32.32 66.432 43.648 14.08 11.2 16.64 17.024 17.408 20.032a39.936 39.936 0 0 1 0 18.688c-0.704 3.008-3.328 8.832-17.408 20.032-14.208 11.328-35.2 24.32-66.432 43.712-30.272 18.688-50.432 31.104-66.048 38.4-15.488 7.104-19.712 5.76-20.032 5.696a26.688 26.688 0 0 1-11.84-7.68c-1.6-1.792-5.12-7.296-7.104-26.56C416 575.936 416 550.016 416 512c0-37.952 0-63.936 2.048-82.944 1.984-19.264 5.504-24.704 7.104-26.496z" fill="#515151" p-id="4214" data-spm-anchor-id="a313x.search_index.0.i1.fbf73a81tAv71k" class="selected"></path><path d="M514.432 74.688h-4.864c-93.44 0-166.912 0-224.192 7.68-58.752 7.936-105.344 24.448-141.952 61.056-36.608 36.608-53.12 83.2-61.056 141.952-7.68 57.28-7.68 130.688-7.68 224.192v4.864c0 93.44 0 166.912 7.68 224.192 7.936 58.752 24.448 105.344 61.056 141.952 36.608 36.672 83.2 53.12 141.952 61.056 57.28 7.68 130.688 7.68 224.192 7.68h4.864c93.44 0 166.912 0 224.192-7.68 58.752-7.872 105.344-24.384 141.952-61.056 36.672-36.608 53.12-83.2 61.056-141.952 7.68-57.28 7.68-130.688 7.68-224.192v-4.864c0-93.44 0-166.912-7.68-224.192-7.872-58.752-24.384-105.344-61.056-141.952-36.608-36.608-83.2-53.12-141.952-61.056-57.28-7.68-130.688-7.68-224.192-7.68z m-325.76 113.92c22.72-22.72 53.568-35.84 105.216-42.816 52.544-7.04 121.664-7.104 218.112-7.104s165.568 0 218.112 7.104c51.648 6.976 82.496 20.096 105.216 42.88 22.784 22.72 35.968 53.568 42.88 105.216 7.04 52.544 7.104 121.664 7.104 218.112s0 165.568-7.104 218.112c-6.912 51.648-20.096 82.496-42.88 105.216-22.72 22.784-53.568 35.968-105.216 42.88-52.544 7.04-121.664 7.104-218.112 7.104s-165.568 0-218.112-7.104c-51.648-6.912-82.496-20.096-105.216-42.88-22.784-22.72-35.904-53.568-42.88-105.216-7.04-52.544-7.104-121.664-7.104-218.112s0-165.568 7.104-218.112c6.976-51.648 20.096-82.496 42.88-105.216z" fill="#515151" p-id="4215" data-spm-anchor-id="a313x.search_index.0.i0.fbf73a81tAv71k" class="selected"></path></svg>