<svg
  viewBox="0 0 1024 1024"
  version="1.1"
  xmlns="http://www.w3.org/2000/svg"
  width="16"
  height="16"
>
  <path
    d="M424.277333 53.361778H426.666667a32.028444 32.028444 0 0 1 0 64c-81.351111 0-139.150222 0.056889-183.011556 5.916444-42.894222 5.802667-67.697778 16.611556-85.731555 34.702222-18.033778 18.033778-28.842667 42.780444-34.588445 85.674667-5.916444 43.861333-6.030222 101.660444-6.030222 183.011556a32.028444 32.028444 0 0 1-63.943111 0v-2.389334c0-78.392889 0-140.515556 6.485333-189.155555 6.769778-50.005333 20.935111-90.453333 52.849778-122.424889 31.914667-31.914667 72.419556-46.08 122.424889-52.849778C283.761778 53.361778 345.884444 53.361778 424.277333 53.304889z m356.067556 69.973333c-43.804444-5.916444-101.660444-6.030222-183.011556-6.030222a32.028444 32.028444 0 0 1 0-63.943111h2.389334c78.449778 0 140.515556 0 189.155555 6.485333 50.005333 6.769778 90.453333 20.935111 122.424889 52.849778 31.914667 31.914667 46.08 72.419556 52.849778 122.424889 6.485333 48.64 6.485333 110.762667 6.485333 189.155555V426.666667a31.971556 31.971556 0 1 1-64 0c0-81.351111-0.056889-139.150222-5.916444-183.011556-5.802667-42.894222-16.611556-67.697778-34.702222-85.731555-18.033778-18.033778-42.780444-28.842667-85.674667-34.588445zM85.333333 565.361778c17.635556 0 32.028444 14.279111 32.028445 31.971555 0 81.351111 0.056889 139.207111 5.916444 183.011556 5.802667 42.894222 16.611556 67.697778 34.702222 85.674667 18.033778 18.090667 42.780444 28.899556 85.674667 34.702222 43.861333 5.859556 101.660444 5.916444 183.011556 5.916444a31.971556 31.971556 0 1 1 0 64.056889h-2.389334c-78.392889 0-140.515556 0-189.155555-6.542222-50.005333-6.769778-90.453333-20.935111-122.424889-52.849778-31.914667-31.914667-46.08-72.419556-52.849778-122.424889-6.485333-48.64-6.485333-110.762667-6.485333-189.155555V597.333333c0-17.635556 14.279111-32.028444 31.971555-32.028444z m853.333334 0c17.635556 0 32.028444 14.279111 32.028444 31.971555v2.389334c0 78.449778 0 140.515556-6.542222 189.155555-6.769778 50.005333-20.935111 90.453333-52.849778 122.424889-31.914667 31.914667-72.419556 46.08-122.424889 52.849778-48.64 6.485333-110.762667 6.485333-189.155555 6.485333H597.333333a31.971556 31.971556 0 1 1 0-64c81.351111 0 139.207111-0.056889 183.011556-5.916444 42.894222-5.802667 67.697778-16.611556 85.674667-34.702222 18.090667-18.033778 28.899556-42.780444 34.702222-85.674667 5.859556-43.804444 5.916444-101.660444 5.916444-183.011556 0-17.635556 14.336-32.028444 32.028445-32.028444zM516.721778 239.160889a40.789333 40.789333 0 0 1 75.946666 0l47.786667 121.400889c4.209778 10.467556 12.515556 18.773333 23.096889 22.983111l121.344 47.786667a40.846222 40.846222 0 0 1 0 75.946666l-121.457778 47.843556a40.96 40.96 0 0 0-22.926222 23.04l-47.843556 121.344a40.789333 40.789333 0 0 1-75.946666 0l-47.786667-121.400889a40.96 40.96 0 0 0-23.096889-22.983111l-121.344-47.786667a40.789333 40.789333 0 0 1 0-75.946667l121.400889-47.843555a40.96 40.96 0 0 0 22.983111-23.04l47.843556-121.344z"></path>
  <path
    d="M304.184889 608.142222a17.009778 17.009778 0 0 1 31.630222 0l19.911111 50.517334a17.066667 17.066667 0 0 0 9.671111 9.614222l50.517334 19.911111a17.066667 17.066667 0 0 1 0 31.630222l-50.631111 19.911111a17.066667 17.066667 0 0 0-9.500445 9.671111l-19.911111 50.517334a17.009778 17.009778 0 0 1-31.687111 0l-19.911111-50.631111a17.066667 17.066667 0 0 0-9.614222-9.557334l-50.574223-19.911111a17.009778 17.009778 0 0 1 0-31.630222l50.631111-19.911111a17.066667 17.066667 0 0 0 9.557334-9.671111l19.911111-50.517334z"></path>
</svg>