<svg t="1702278579322" class="icon" viewBox="0 0 1024 1024" version="1.1" xmlns="http://www.w3.org/2000/svg" p-id="12794" width="128" height="128"><path d="M42.666667 768v-512q0-70.712889 50.005333-120.661333Q142.620444 85.333333 213.333333 85.333333h597.333334q70.656 0 120.661333 50.005334 50.005333 49.948444 50.005333 120.661333v512q0 70.712889-50.005333 120.661333-49.948444 50.005333-120.661333 50.005334H213.333333q-70.712889 0-120.661333-50.005334Q42.666667 838.712889 42.666667 768z m85.333333 0q0 35.328 25.031111 60.302222 24.974222 25.031111 60.302222 25.031111h597.333334q35.328 0 60.302222-25.031111 25.031111-24.974222 25.031111-60.302222v-512q0-35.328-25.031111-60.302222Q845.994667 170.666667 810.666667 170.666667H213.333333q-35.328 0-60.302222 25.031111-25.031111 24.974222-25.031111 60.302222v512z" fill="#515151" p-id="12795" data-spm-anchor-id="a313x.search_index.0.i24.1c903a81jYIaKl" class="selected"></path><path d="M938.666667 341.333333h-853.333334q-4.209778 0-8.305777-0.796444-4.152889-0.853333-8.021334-2.446222-3.868444-1.592889-7.395555-3.982223-3.470222-2.275556-6.428445-5.290666-3.015111-2.958222-5.347555-6.428445-2.275556-3.527111-3.925334-7.395555-1.592889-3.868444-2.446222-7.964445Q42.666667 302.819556 42.666667 298.666667t0.796444-8.305778q0.853333-4.152889 2.446222-8.021333 1.592889-3.868444 3.982223-7.395556 2.275556-3.470222 5.290666-6.428444 2.958222-3.015111 6.428445-5.347556 3.527111-2.275556 7.395555-3.925333 3.868444-1.592889 7.964445-2.446223 4.152889-0.796444 8.362666-0.796444h853.333334q4.209778 0 8.305777 0.796444 4.152889 0.853333 7.964445 2.446223 3.982222 1.592889 7.395555 3.982222 3.527111 2.275556 6.485334 5.290667 2.958222 2.958222 5.290666 6.428444 2.332444 3.527111 3.982223 7.395556 1.592889 3.868444 2.389333 7.964444 0.853333 4.152889 0.853333 8.362667t-0.853333 8.305777q-0.796444 4.152889-2.389333 8.021334-1.649778 3.868444-3.982223 7.395555-2.275556 3.470222-5.290666 6.428445-2.958222 3.015111-6.485334 5.347555-3.413333 2.275556-7.395555 3.925334-3.811556 1.592889-7.964445 2.446222Q942.876444 341.333333 938.666667 341.333333z m42.666666-42.666666q0 4.209778-0.853333 8.305777-0.796444 4.152889-2.389333 8.021334-1.649778 3.868444-3.982223 7.395555-2.275556 3.470222-5.290666 6.428445-2.958222 3.015111-6.485334 5.347555-3.413333 2.275556-7.395555 3.925334-3.811556 1.592889-7.964445 2.446222Q942.876444 341.333333 938.666667 341.333333t-8.305778-0.796444q-4.152889-0.853333-8.021333-2.446222-3.868444-1.592889-7.395556-3.982223-3.470222-2.275556-6.428444-5.290666-3.015111-2.958222-5.347556-6.428445-2.275556-3.527111-3.982222-7.395555-1.536-3.868444-2.389334-7.964445-0.796444-4.152889-0.796444-8.362666t0.796444-8.305778q0.853333-4.152889 2.446223-8.021333 1.592889-3.868444 3.982222-7.395556 2.275556-3.470222 5.233778-6.428444 3.015111-3.015111 6.485333-5.347556 3.527111-2.275556 7.395556-3.925333 3.868444-1.592889 7.964444-2.446223 4.152889-0.796444 8.362667-0.796444t8.305777 0.796444q4.152889 0.853333 7.964445 2.446223 3.982222 1.592889 7.395555 3.982222 3.527111 2.275556 6.485334 5.290667 2.958222 2.958222 5.290666 6.428444 2.332444 3.527111 3.982223 7.395556 1.592889 3.868444 2.389333 7.964444 0.853333 4.152889 0.853333 8.362667z m-853.333333 0q0 4.209778-0.796444 8.305777-0.853333 4.152889-2.446223 8.021334-1.592889 3.868444-3.982222 7.395555-2.275556 3.470222-5.290667 6.428445-2.958222 3.015111-6.428444 5.347555-3.527111 2.275556-7.395556 3.925334-3.868444 1.592889-7.964444 2.446222Q89.486222 341.333333 85.333333 341.333333t-8.305777-0.796444q-4.152889-0.853333-8.021334-2.446222-3.868444-1.592889-7.395555-3.982223-3.470222-2.275556-6.428445-5.290666-3.015111-2.958222-5.347555-6.428445-2.275556-3.527111-3.925334-7.395555-1.592889-3.868444-2.446222-7.964445Q42.666667 302.819556 42.666667 298.666667t0.796444-8.305778q0.853333-4.152889 2.446222-8.021333 1.592889-3.868444 3.982223-7.395556 2.275556-3.470222 5.290666-6.428444 2.958222-3.015111 6.428445-5.347556 3.527111-2.275556 7.395555-3.925333 3.868444-1.592889 7.964445-2.446223 4.152889-0.796444 8.362666-0.796444t8.305778 0.796444q4.152889 0.853333 8.021333 2.446223 3.868444 1.592889 7.395556 3.982222 3.470222 2.275556 6.428444 5.290667 3.015111 2.958222 5.347556 6.428444 2.275556 3.527111 3.925333 7.395556 1.592889 3.868444 2.446223 7.964444 0.796444 4.152889 0.796444 8.362667zM768 554.666667h-341.333333q-4.209778 0-8.305778-0.796445-4.152889-0.853333-8.021333-2.446222-3.868444-1.592889-7.395556-3.982222-3.470222-2.275556-6.428444-5.290667-3.015111-2.958222-5.347556-6.428444-2.275556-3.527111-3.925333-7.395556-1.592889-3.868444-2.446223-7.964444Q384 516.152889 384 512t0.796444-8.305778q0.853333-4.152889 2.446223-8.021333 1.592889-3.868444 3.982222-7.395556 2.275556-3.470222 5.290667-6.428444 2.958222-3.015111 6.428444-5.347556 3.527111-2.275556 7.395556-3.925333 3.868444-1.592889 7.964444-2.446222 4.152889-0.796444 8.362667-0.796445h341.333333q4.209778 0 8.305778 0.796445 4.152889 0.853333 8.021333 2.446222 3.868444 1.592889 7.395556 3.982222 3.470222 2.275556 6.428444 5.290667 3.015111 2.958222 5.347556 6.428444 2.275556 3.527111 3.925333 7.395556 1.592889 3.868444 2.446222 7.964444 0.796444 4.152889 0.796445 8.362667t-0.796445 8.305778q-0.853333 4.152889-2.446222 8.021333-1.592889 3.868444-3.982222 7.395556-2.275556 3.470222-5.290667 6.428444-2.958222 3.015111-6.428444 5.347556-3.527111 2.275556-7.395556 3.925333-3.868444 1.592889-7.964444 2.446222-4.152889 0.796444-8.362667 0.796445z m42.666667-42.666667q0 4.209778-0.796445 8.305778-0.853333 4.152889-2.446222 8.021333-1.592889 3.868444-3.982222 7.395556-2.275556 3.470222-5.290667 6.428444-2.958222 3.015111-6.428444 5.347556-3.527111 2.275556-7.395556 3.925333-3.868444 1.592889-7.964444 2.446222-4.152889 0.796444-8.362667 0.796445t-8.305778-0.796445q-4.152889-0.853333-8.021333-2.446222-3.868444-1.592889-7.395556-3.982222-3.470222-2.275556-6.428444-5.290667-3.015111-2.958222-5.347556-6.428444-2.275556-3.527111-3.925333-7.395556-1.592889-3.868444-2.446222-7.964444-0.796444-4.152889-0.796445-8.362667t0.796445-8.305778q0.853333-4.152889 2.446222-8.021333 1.592889-3.868444 3.982222-7.395556 2.275556-3.470222 5.290667-6.428444 2.958222-3.015111 6.428444-5.347556 3.527111-2.275556 7.395556-3.925333 3.868444-1.592889 7.964444-2.446222 4.152889-0.796444 8.362667-0.796445t8.305778 0.796445q4.152889 0.853333 8.021333 2.446222 3.868444 1.592889 7.395556 3.982222 3.470222 2.275556 6.428444 5.290667 3.015111 2.958222 5.347556 6.428444 2.275556 3.527111 3.925333 7.395556 1.592889 3.868444 2.446222 7.964444 0.796444 4.152889 0.796445 8.362667z m-341.333334 0q0 4.209778-0.796444 8.305778-0.853333 4.152889-2.446222 8.021333-1.592889 3.868444-3.982223 7.395556-2.275556 3.470222-5.290666 6.428444-2.958222 3.015111-6.428445 5.347556-3.527111 2.275556-7.395555 3.925333-3.868444 1.592889-7.964445 2.446222-4.152889 0.796444-8.362666 0.796445t-8.305778-0.796445q-4.152889-0.853333-8.021333-2.446222-3.868444-1.592889-7.395556-3.982222-3.470222-2.275556-6.428444-5.290667-3.015111-2.958222-5.347556-6.428444-2.275556-3.527111-3.925333-7.395556-1.592889-3.868444-2.446223-7.964444Q384 516.152889 384 512t0.796444-8.305778q0.853333-4.152889 2.446223-8.021333 1.592889-3.868444 3.982222-7.395556 2.275556-3.470222 5.290667-6.428444 2.958222-3.015111 6.428444-5.347556 3.527111-2.275556 7.395556-3.925333 3.868444-1.592889 7.964444-2.446222 4.152889-0.796444 8.362667-0.796445t8.305777 0.796445q4.152889 0.853333 8.021334 2.446222 3.868444 1.592889 7.395555 3.982222 3.470222 2.275556 6.428445 5.290667 3.015111 2.958222 5.347555 6.428444 2.275556 3.527111 3.925334 7.395556 1.592889 3.868444 2.446222 7.964444 0.796444 4.152889 0.796444 8.362667zM768 725.333333h-341.333333q-4.209778 0-8.305778-0.796444-4.152889-0.853333-8.021333-2.446222-3.868444-1.592889-7.395556-3.982223-3.470222-2.275556-6.428444-5.290666-3.015111-2.958222-5.347556-6.428445-2.275556-3.527111-3.925333-7.395555-1.592889-3.868444-2.446223-7.964445-0.796444-4.152889-0.796444-8.362666t0.796444-8.305778q0.853333-4.152889 2.446223-8.021333 1.592889-3.868444 3.982222-7.395556 2.275556-3.470222 5.290667-6.428444 2.958222-3.015111 6.428444-5.347556 3.527111-2.275556 7.395556-3.925333 3.868444-1.592889 7.964444-2.446223 4.152889-0.796444 8.362667-0.796444h341.333333q4.209778 0 8.305778 0.796444 4.152889 0.853333 8.021333 2.446223 3.868444 1.592889 7.395556 3.982222 3.470222 2.275556 6.428444 5.290667 3.015111 2.958222 5.347556 6.428444 2.275556 3.527111 3.925333 7.395556 1.592889 3.868444 2.446222 7.964444 0.796444 4.152889 0.796445 8.362667t-0.796445 8.305777q-0.853333 4.152889-2.446222 8.021334-1.592889 3.868444-3.982222 7.395555-2.275556 3.470222-5.290667 6.428445-2.958222 3.015111-6.428444 5.347555-3.527111 2.275556-7.395556 3.925334-3.868444 1.592889-7.964444 2.446222-4.152889 0.796444-8.362667 0.796444z m42.666667-42.666666q0 4.209778-0.796445 8.305777-0.853333 4.152889-2.446222 8.021334-1.592889 3.868444-3.982222 7.395555-2.275556 3.470222-5.290667 6.428445-2.958222 3.015111-6.428444 5.347555-3.527111 2.275556-7.395556 3.925334-3.868444 1.592889-7.964444 2.446222-4.152889 0.796444-8.362667 0.796444t-8.305778-0.796444q-4.152889-0.853333-8.021333-2.446222-3.868444-1.592889-7.395556-3.982223-3.470222-2.275556-6.428444-5.290666-3.015111-2.958222-5.347556-6.428445-2.275556-3.527111-3.925333-7.395555-1.592889-3.868444-2.446222-7.964445-0.796444-4.152889-0.796445-8.362666t0.796445-8.305778q0.853333-4.152889 2.446222-8.021333 1.592889-3.868444 3.982222-7.395556 2.275556-3.470222 5.290667-6.428444 2.958222-3.015111 6.428444-5.347556 3.527111-2.275556 7.395556-3.925333 3.868444-1.592889 7.964444-2.446223 4.152889-0.796444 8.362667-0.796444t8.305778 0.796444q4.152889 0.853333 8.021333 2.446223 3.868444 1.592889 7.395556 3.982222 3.470222 2.275556 6.428444 5.290667 3.015111 2.958222 5.347556 6.428444 2.275556 3.527111 3.925333 7.395556 1.592889 3.868444 2.446222 7.964444 0.796444 4.152889 0.796445 8.362667z m-341.333334 0q0 4.209778-0.796444 8.305777-0.853333 4.152889-2.446222 8.021334-1.592889 3.868444-3.982223 7.395555-2.275556 3.470222-5.290666 6.428445-2.958222 3.015111-6.428445 5.347555-3.527111 2.275556-7.395555 3.925334-3.868444 1.592889-7.964445 2.446222-4.152889 0.796444-8.362666 0.796444t-8.305778-0.796444q-4.152889-0.853333-8.021333-2.446222-3.868444-1.592889-7.395556-3.982223-3.470222-2.275556-6.428444-5.290666-3.015111-2.958222-5.347556-6.428445-2.275556-3.527111-3.925333-7.395555-1.592889-3.868444-2.446223-7.964445-0.796444-4.152889-0.796444-8.362666t0.796444-8.305778q0.853333-4.152889 2.446223-8.021333 1.592889-3.868444 3.982222-7.395556 2.275556-3.470222 5.290667-6.428444 2.958222-3.015111 6.428444-5.347556 3.527111-2.275556 7.395556-3.925333 3.868444-1.592889 7.964444-2.446223 4.152889-0.796444 8.362667-0.796444t8.305777 0.796444q4.152889 0.853333 8.021334 2.446223 3.868444 1.592889 7.395555 3.982222 3.470222 2.275556 6.428445 5.290667 3.015111 2.958222 5.347555 6.428444 2.275556 3.527111 3.925334 7.395556 1.592889 3.868444 2.446222 7.964444 0.796444 4.152889 0.796444 8.362667zM298.666667 554.666667H256q-4.209778 0-8.305778-0.796445-4.152889-0.853333-8.021333-2.446222-3.868444-1.592889-7.395556-3.982222-3.470222-2.275556-6.428444-5.290667-3.015111-2.958222-5.347556-6.428444-2.275556-3.527111-3.925333-7.395556-1.592889-3.868444-2.446222-7.964444Q213.333333 516.152889 213.333333 512t0.796445-8.305778q0.853333-4.152889 2.446222-8.021333 1.592889-3.868444 3.982222-7.395556 2.275556-3.470222 5.290667-6.428444 2.958222-3.015111 6.428444-5.347556 3.527111-2.275556 7.395556-3.925333 3.868444-1.592889 7.964444-2.446222 4.152889-0.796444 8.362667-0.796445h42.666667q4.209778 0 8.305777 0.796445 4.152889 0.853333 8.021334 2.446222 3.868444 1.592889 7.395555 3.982222 3.470222 2.275556 6.428445 5.290667 3.015111 2.958222 5.347555 6.428444 2.275556 3.527111 3.925334 7.395556 1.592889 3.868444 2.446222 7.964444Q341.333333 507.847111 341.333333 512t-0.796444 8.305778q-0.853333 4.152889-2.446222 8.021333-1.592889 3.868444-3.982223 7.395556-2.275556 3.470222-5.290666 6.428444-2.958222 3.015111-6.428445 5.347556-3.527111 2.275556-7.395555 3.925333-3.868444 1.592889-7.964445 2.446222-4.152889 0.796444-8.362666 0.796445zM341.333333 512q0 4.209778-0.796444 8.305778-0.853333 4.152889-2.446222 8.021333-1.592889 3.868444-3.982223 7.395556-2.275556 3.470222-5.290666 6.428444-2.958222 3.015111-6.428445 5.347556-3.527111 2.275556-7.395555 3.925333-3.868444 1.592889-7.964445 2.446222-4.152889 0.796444-8.362666 0.796445t-8.305778-0.796445q-4.152889-0.853333-8.021333-2.446222-3.868444-1.592889-7.395556-3.982222-3.470222-2.275556-6.428444-5.290667-3.015111-2.958222-5.347556-6.428444-2.275556-3.527111-3.925333-7.395556-1.592889-3.868444-2.446223-7.964444Q256 516.152889 256 512t0.796444-8.305778q0.853333-4.152889 2.446223-8.021333 1.592889-3.868444 3.982222-7.395556 2.275556-3.470222 5.290667-6.428444 2.958222-3.015111 6.428444-5.347556 3.527111-2.275556 7.395556-3.925333 3.868444-1.592889 7.964444-2.446222 4.152889-0.796444 8.362667-0.796445t8.305777 0.796445q4.152889 0.853333 8.021334 2.446222 3.868444 1.592889 7.395555 3.982222 3.470222 2.275556 6.428445 5.290667 3.015111 2.958222 5.347555 6.428444 2.275556 3.527111 3.925334 7.395556 1.592889 3.868444 2.446222 7.964444Q341.333333 507.847111 341.333333 512z m-42.666666 0q0 4.209778-0.796445 8.305778-0.853333 4.152889-2.446222 8.021333-1.592889 3.868444-3.982222 7.395556-2.275556 3.470222-5.290667 6.428444-2.958222 3.015111-6.428444 5.347556-3.527111 2.275556-7.395556 3.925333-3.868444 1.592889-7.964444 2.446222-4.152889 0.796444-8.362667 0.796445t-8.305778-0.796445q-4.152889-0.853333-8.021333-2.446222-3.868444-1.592889-7.395556-3.982222-3.470222-2.275556-6.428444-5.290667-3.015111-2.958222-5.347556-6.428444-2.275556-3.527111-3.925333-7.395556-1.592889-3.868444-2.446222-7.964444Q213.333333 516.152889 213.333333 512t0.796445-8.305778q0.853333-4.152889 2.446222-8.021333 1.592889-3.868444 3.982222-7.395556 2.275556-3.470222 5.290667-6.428444 2.958222-3.015111 6.428444-5.347556 3.527111-2.275556 7.395556-3.925333 3.868444-1.592889 7.964444-2.446222 4.152889-0.796444 8.362667-0.796445t8.305778 0.796445q4.152889 0.853333 8.021333 2.446222 3.868444 1.592889 7.395556 3.982222 3.470222 2.275556 6.428444 5.290667 3.015111 2.958222 5.347556 6.428444 2.275556 3.527111 3.925333 7.395556 1.592889 3.868444 2.446222 7.964444 0.796444 4.152889 0.796445 8.362667zM298.666667 725.333333H256q-4.209778 0-8.305778-0.796444-4.152889-0.853333-8.021333-2.446222-3.868444-1.592889-7.395556-3.982223-3.470222-2.275556-6.428444-5.290666-3.015111-2.958222-5.347556-6.428445-2.275556-3.527111-3.925333-7.395555-1.592889-3.868444-2.446222-7.964445-0.796444-4.152889-0.796445-8.362666t0.796445-8.305778q0.853333-4.152889 2.446222-8.021333 1.592889-3.868444 3.982222-7.395556 2.275556-3.470222 5.290667-6.428444 2.958222-3.015111 6.428444-5.347556 3.527111-2.275556 7.395556-3.925333 3.868444-1.592889 7.964444-2.446223 4.152889-0.796444 8.362667-0.796444h42.666667q4.209778 0 8.305777 0.796444 4.152889 0.853333 8.021334 2.446223 3.868444 1.592889 7.395555 3.982222 3.470222 2.275556 6.428445 5.290667 3.015111 2.958222 5.347555 6.428444 2.275556 3.527111 3.925334 7.395556 1.592889 3.868444 2.446222 7.964444Q341.333333 678.513778 341.333333 682.666667t-0.796444 8.305777q-0.853333 4.152889-2.446222 8.021334-1.592889 3.868444-3.982223 7.395555-2.275556 3.470222-5.290666 6.428445-2.958222 3.015111-6.428445 5.347555-3.527111 2.275556-7.395555 3.925334-3.868444 1.592889-7.964445 2.446222-4.152889 0.796444-8.362666 0.796444zM341.333333 682.666667q0 4.209778-0.796444 8.305777-0.853333 4.152889-2.446222 8.021334-1.592889 3.868444-3.982223 7.395555-2.275556 3.470222-5.290666 6.428445-2.958222 3.015111-6.428445 5.347555-3.527111 2.275556-7.395555 3.925334-3.868444 1.592889-7.964445 2.446222-4.152889 0.796444-8.362666 0.796444t-8.305778-0.796444q-4.152889-0.853333-8.021333-2.446222-3.868444-1.592889-7.395556-3.982223-3.470222-2.275556-6.428444-5.290666-3.015111-2.958222-5.347556-6.428445-2.275556-3.527111-3.925333-7.395555-1.592889-3.868444-2.446223-7.964445Q256 686.819556 256 682.666667t0.796444-8.305778q0.853333-4.152889 2.446223-8.021333 1.592889-3.868444 3.982222-7.395556 2.275556-3.470222 5.290667-6.428444 2.958222-3.015111 6.428444-5.347556 3.527111-2.275556 7.395556-3.925333 3.868444-1.592889 7.964444-2.446223 4.152889-0.796444 8.362667-0.796444t8.305777 0.796444q4.152889 0.853333 8.021334 2.446223 3.868444 1.592889 7.395555 3.982222 3.470222 2.275556 6.428445 5.290667 3.015111 2.958222 5.347555 6.428444 2.275556 3.527111 3.925334 7.395556 1.592889 3.868444 2.446222 7.964444Q341.333333 678.513778 341.333333 682.666667z m-42.666666 0q0 4.209778-0.796445 8.305777-0.853333 4.152889-2.446222 8.021334-1.592889 3.868444-3.982222 7.395555-2.275556 3.470222-5.290667 6.428445-2.958222 3.015111-6.428444 5.347555-3.527111 2.275556-7.395556 3.925334-3.868444 1.592889-7.964444 2.446222-4.152889 0.796444-8.362667 0.796444t-8.305778-0.796444q-4.152889-0.853333-8.021333-2.446222-3.868444-1.592889-7.395556-3.982223-3.470222-2.275556-6.428444-5.290666-3.015111-2.958222-5.347556-6.428445-2.275556-3.527111-3.925333-7.395555-1.592889-3.868444-2.446222-7.964445-0.796444-4.152889-0.796445-8.362666t0.796445-8.305778q0.853333-4.152889 2.446222-8.021333 1.592889-3.868444 3.982222-7.395556 2.275556-3.470222 5.290667-6.428444 2.958222-3.015111 6.428444-5.347556 3.527111-2.275556 7.395556-3.925333 3.868444-1.592889 7.964444-2.446223 4.152889-0.796444 8.362667-0.796444t8.305778 0.796444q4.152889 0.853333 8.021333 2.446223 3.868444 1.592889 7.395556 3.982222 3.470222 2.275556 6.428444 5.290667 3.015111 2.958222 5.347556 6.428444 2.275556 3.527111 3.925333 7.395556 1.592889 3.868444 2.446222 7.964444 0.796444 4.152889 0.796445 8.362667z" fill="#515151" p-id="12796" data-spm-anchor-id="a313x.search_index.0.i25.1c903a81jYIaKl" class="selected"></path></svg>