<svg t="1690267897766" class="icon" viewBox="0 0 1024 1024" version="1.1" xmlns="http://www.w3.org/2000/svg" p-id="1505" width="200" height="200"><path d="M53.312 810.688V384q0-39.744 28.16-67.84 28.096-28.16 67.84-28.16h725.376q39.744 0 67.84 28.16 28.16 28.096 28.16 67.84v426.688q0 39.744-28.16 67.84-28.096 28.16-67.84 28.16H149.312q-39.744 0-67.84-28.16-28.16-28.096-28.16-67.84z m64 0q0 13.248 9.408 22.592 9.344 9.408 22.592 9.408h725.376q13.248 0 22.592-9.408 9.408-9.344 9.408-22.592V384q0-13.248-9.408-22.656-9.344-9.344-22.592-9.344H149.312q-13.248 0-22.592 9.344-9.408 9.408-9.408 22.656v426.688z" p-id="1506" fill="#555555"></path><path d="M660.032 342.656L489.344 171.968 512 149.312l22.592 22.656-170.624 170.688L341.312 320v-32h341.376V320l-22.656 22.656z m45.248-45.312q4.48 4.48 6.976 10.432 2.432 5.888 2.432 12.224 0 3.2-0.64 6.272t-1.792 5.952q-1.28 2.944-3.008 5.568-1.728 2.56-3.968 4.864-2.24 2.176-4.864 3.968-2.56 1.728-5.504 2.944-2.944 1.216-6.016 1.792-3.072 0.64-6.208 0.64H341.312q-6.4 0-12.224-2.432-5.888-2.432-10.368-6.912-2.24-2.24-3.968-4.864-1.792-2.624-3.008-5.568-1.216-2.88-1.792-5.952-0.64-3.136-0.64-6.272 0-3.2 0.64-6.272t1.792-5.952q1.28-2.944 3.008-5.568 1.728-2.56 3.968-4.864L489.344 126.72q2.24-2.24 4.864-3.968 2.624-1.792 5.568-3.008 2.88-1.152 5.952-1.792 3.136-0.64 6.272-0.64 3.2 0 6.208 0.64 3.136 0.64 6.016 1.792 2.944 1.28 5.568 3.008 2.56 1.728 4.8 3.968l170.688 170.624zM640 544H256q-3.2 0-6.272-0.64t-5.952-1.792q-2.944-1.216-5.568-2.944-2.56-1.792-4.864-3.968-2.176-2.24-3.968-4.864-1.728-2.624-2.944-5.568-1.216-2.88-1.792-5.952Q224 515.136 224 512q0-3.2 0.64-6.272t1.792-5.952q1.216-2.944 2.944-5.568 1.792-2.56 3.968-4.864 2.24-2.176 4.864-3.968 2.624-1.728 5.568-2.944 2.88-1.216 5.952-1.792 3.136-0.64 6.272-0.64h384q3.2 0 6.272 0.64t5.952 1.792q2.944 1.216 5.568 2.944 2.56 1.792 4.864 3.968 2.176 2.24 3.968 4.864 1.728 2.624 2.944 5.568 1.216 2.88 1.792 5.952 0.64 3.136 0.64 6.272 0 3.2-0.64 6.272t-1.792 5.952q-1.216 2.944-2.944 5.568-1.792 2.56-3.968 4.864-2.24 2.176-4.864 3.968-2.624 1.728-5.568 2.944-2.88 1.216-5.952 1.792-3.136 0.64-6.272 0.64z m32-32q0 3.2-0.64 6.272t-1.792 5.952q-1.216 2.944-2.944 5.568-1.792 2.56-3.968 4.864-2.24 2.176-4.864 3.968-2.624 1.728-5.568 2.944-2.88 1.216-5.952 1.792-3.136 0.64-6.272 0.64-3.2 0-6.272-0.64t-5.952-1.792q-2.944-1.216-5.568-2.944-2.56-1.792-4.864-3.968-2.176-2.24-3.968-4.864-1.728-2.624-2.944-5.568-1.216-2.88-1.792-5.952Q608 515.136 608 512q0-3.2 0.64-6.272t1.792-5.952q1.216-2.944 2.944-5.568 1.792-2.56 3.968-4.864 2.24-2.176 4.864-3.968 2.624-1.728 5.568-2.944 2.88-1.216 5.952-1.792 3.136-0.64 6.272-0.64 3.2 0 6.272 0.64t5.952 1.792q2.944 1.216 5.568 2.944 2.56 1.792 4.864 3.968 2.176 2.24 3.968 4.864 1.728 2.624 2.944 5.568 1.216 2.88 1.792 5.952 0.64 3.136 0.64 6.272z m-384 0q0 3.2-0.64 6.272t-1.792 5.952q-1.216 2.944-2.944 5.568-1.792 2.56-3.968 4.864-2.24 2.176-4.864 3.968-2.624 1.728-5.568 2.944-2.88 1.216-5.952 1.792-3.136 0.64-6.272 0.64-3.2 0-6.272-0.64t-5.952-1.792q-2.944-1.216-5.568-2.944-2.56-1.792-4.864-3.968-2.176-2.24-3.968-4.864-1.728-2.624-2.944-5.568-1.216-2.88-1.792-5.952Q224 515.136 224 512q0-3.2 0.64-6.272t1.792-5.952q1.216-2.944 2.944-5.568 1.792-2.56 3.968-4.864 2.24-2.176 4.864-3.968 2.624-1.728 5.568-2.944 2.88-1.216 5.952-1.792 3.136-0.64 6.272-0.64 3.2 0 6.272 0.64t5.952 1.792q2.944 1.216 5.568 2.944 2.56 1.792 4.864 3.968 2.176 2.24 3.968 4.864 1.728 2.624 2.944 5.568 1.216 2.88 1.792 5.952 0.64 3.136 0.64 6.272zM426.688 714.688H256q-3.2 0-6.272-0.64t-5.952-1.792q-2.944-1.28-5.568-3.008-2.56-1.728-4.864-3.968-2.176-2.24-3.968-4.864-1.728-2.56-2.944-5.504-1.216-2.88-1.792-6.016-0.64-3.072-0.64-6.208 0-3.2 0.64-6.272t1.792-6.016q1.216-2.88 2.944-5.504 1.792-2.624 3.968-4.864 2.24-2.24 4.864-3.968 2.624-1.728 5.568-2.944 2.88-1.28 5.952-1.856 3.136-0.64 6.272-0.64h170.688q3.136 0 6.208 0.64 3.136 0.64 6.016 1.856 2.944 1.216 5.504 2.944 2.624 1.728 4.864 3.968 2.24 2.24 3.968 4.864 1.792 2.56 3.008 5.504 1.152 2.944 1.792 6.016 0.64 3.072 0.64 6.272 0 3.136-0.64 6.208-0.64 3.136-1.792 6.016-1.28 2.944-3.008 5.504-1.728 2.624-3.968 4.864-2.24 2.24-4.864 3.968-2.56 1.792-5.504 3.008-2.88 1.152-6.016 1.792-3.072 0.64-6.208 0.64z m32-32q0 3.136-0.64 6.208-0.64 3.136-1.792 6.016-1.28 2.944-3.008 5.504-1.728 2.624-3.968 4.864-2.24 2.24-4.864 3.968-2.56 1.792-5.504 3.008-2.88 1.152-6.016 1.792-3.072 0.64-6.208 0.64-3.2 0-6.272-0.64t-6.016-1.792q-2.88-1.28-5.504-3.008-2.624-1.728-4.864-3.968-2.24-2.24-3.968-4.864-1.728-2.56-2.944-5.504-1.28-2.88-1.856-6.016-0.64-3.072-0.64-6.208 0-3.2 0.64-6.272t1.856-6.016q1.216-2.88 2.944-5.504 1.728-2.624 3.968-4.864 2.24-2.24 4.864-3.968 2.56-1.728 5.504-2.944 2.944-1.28 6.016-1.856 3.072-0.64 6.272-0.64 3.136 0 6.208 0.64 3.136 0.64 6.016 1.856 2.944 1.216 5.504 2.944 2.624 1.728 4.864 3.968 2.24 2.24 3.968 4.864 1.792 2.56 3.008 5.504 1.152 2.944 1.792 6.016 0.64 3.072 0.64 6.272z m-170.688 0q0 3.136-0.64 6.208-0.64 3.136-1.792 6.016-1.216 2.944-2.944 5.504-1.792 2.624-3.968 4.864-2.24 2.24-4.864 3.968-2.624 1.792-5.568 3.008-2.88 1.152-5.952 1.792-3.136 0.64-6.272 0.64-3.2 0-6.272-0.64t-5.952-1.792q-2.944-1.28-5.568-3.008-2.56-1.728-4.864-3.968-2.176-2.24-3.968-4.864-1.728-2.56-2.944-5.504-1.216-2.88-1.792-6.016-0.64-3.072-0.64-6.208 0-3.2 0.64-6.272t1.792-6.016q1.216-2.88 2.944-5.504 1.792-2.624 3.968-4.864 2.24-2.24 4.864-3.968 2.624-1.728 5.568-2.944 2.88-1.28 5.952-1.856 3.136-0.64 6.272-0.64 3.2 0 6.272 0.64t5.952 1.856q2.944 1.216 5.568 2.944 2.56 1.728 4.864 3.968 2.176 2.24 3.968 4.864 1.728 2.56 2.944 5.504 1.216 2.944 1.792 6.016 0.64 3.072 0.64 6.272z" p-id="1507" fill="#555555"></path></svg>